# xmcd CD database file
#
# Track frame offsets:
#	150
#	19330
#	35920
#
# Disc length: 732 seconds
#
# Revision: 0
# Processed by: cddbd v1.5.1PL0 Copyright (c) Steve Scherf et al.
# Submitted via: CDex 1.51
#
DISCID=2302da03
DTITLE=エレファントカシマシ - はじまりは今
DYEAR=1998
DGENRE=Rock
TTITLE0=はじまりは今
TTITLE1=涙の数だけ
TTITLE2=はじまりは今（カラオケ）
EXTD=YEAR: 1998
EXTT0=
EXTT1=
EXTT2=
PLAYORDER=
